<svg xmlns="http://www.w3.org/2000/svg" viewBox="0 0 980 460" role="img" aria-label="Roadmap layers / lanes — completion: 306 / 592 layers / lanes completed (51.7%) · through 2026-10-07"><style>text{font-family:'Helvetica Neue',Helvetica,Arial,'Liberation Sans',sans-serif;fill:#eef2fb}.title{font-size:19.0px;font-weight:600}.subtitle{font-size:13.0px;fill:#9aa6c9}.tick{font-size:12.0px;fill:#9aa6c9}.grid{stroke:rgba(255,255,255,0.08);stroke-width:1.0}.axis{stroke:rgba(255,255,255,0.18);stroke-width:1.0}</style><rect x="0.5" y="0.5" width="979" height="459" rx="12.0" fill="#101936" stroke="#1b2547" stroke-width="1.0"/><text class="title" x="80" y="32">Roadmap layers / lanes — completion</text><text class="subtitle" x="80" y="55">306 / 592 layers / lanes completed (51.7%) · through 2026-10-07</text><rect x="80" y="74" width="12" height="12" rx="2" fill="#60a5fa"/><text class="tick" x="100" y="85">All layers / lanes</text><rect x="345" y="74" width="12" height="12" rx="2" fill="#5eead4"/><text class="tick" x="365" y="85">Completed</text><rect x="610" y="74" width="12" height="12" rx="2" fill="#9aa6c9"/><text class="tick" x="630" y="85">13 currently unassessed</text><line class="grid" x1="80" y1="405.0" x2="950" y2="405.0"/><text class="tick" text-anchor="end" x="68" y="409.0">0</text><line class="grid" x1="80" y1="344.0" x2="950" y2="344.0"/><text class="tick" text-anchor="end" x="68" y="348.0">200</text><line class="grid" x1="80" y1="283.0" x2="950" y2="283.0"/><text class="tick" text-anchor="end" x="68" y="287.0">400</text><line class="grid" x1="80" y1="222.0" x2="950" y2="222.0"/><text class="tick" text-anchor="end" x="68" y="226.0">600</text><line class="grid" x1="80" y1="161.0" x2="950" y2="161.0"/><text class="tick" text-anchor="end" x="68" y="165.0">800</text><line class="grid" x1="80" y1="100.0" x2="950" y2="100.0"/><text class="tick" text-anchor="end" x="68" y="104.0">1,000</text><text class="tick" text-anchor="middle" x="80.0" y="435">Jun 03</text><text class="tick" text-anchor="middle" x="225.0" y="435">Jun 24</text><text class="tick" text-anchor="middle" x="370.0" y="435">Jul 15</text><text class="tick" text-anchor="middle" x="515.0" y="435">Aug 05</text><text class="tick" text-anchor="middle" x="660.0" y="435">Aug 26</text><text class="tick" text-anchor="middle" x="805.0" y="435">Sep 16</text><text class="tick" text-anchor="middle" x="950.0" y="435">Oct 07</text><path d="M 80.0,397.1 H 86.9 V 397.1 H 93.8 V 397.1 H 100.7 V 397.1 H 107.6 V 397.1 H 114.5 V 397.1 H 121.4 V 397.1 H 128.3 V 397.1 H 135.2 V 392.8 H 142.1 V 390.4 H 149.0 V 390.4 H 156.0 V 390.4 H 162.9 V 390.4 H 169.8 V 390.4 H 176.7 V 390.4 H 183.6 V 390.4 H 190.5 V 387.6 H 197.4 V 386.7 H 204.3 V 386.7 H 211.2 V 386.7 H 218.1 V 386.7 H 225.0 V 386.7 H 231.9 V 384.0 H 238.8 V 384.0 H 245.7 V 382.7 H 252.6 V 382.7 H 259.5 V 380.6 H 266.4 V 380.6 H 273.3 V 380.6 H 280.2 V 379.1 H 287.1 V 379.1 H 294.0 V 379.1 H 301.0 V 379.1 H 307.9 V 379.1 H 314.8 V 379.1 H 321.7 V 379.1 H 328.6 V 379.1 H 335.5 V 379.1 H 342.4 V 379.1 H 349.3 V 379.1 H 356.2 V 379.1 H 363.1 V 379.1 H 370.0 V 379.1 H 376.9 V 379.1 H 383.8 V 379.1 H 390.7 V 379.1 H 397.6 V 379.1 H 404.5 V 379.1 H 411.4 V 379.1 H 418.3 V 379.1 H 425.2 V 379.1 H 432.1 V 379.1 H 439.0 V 379.1 H 446.0 V 350.4 H 452.9 V 350.4 H 459.8 V 350.4 H 466.7 V 350.4 H 473.6 V 350.4 H 480.5 V 350.4 H 487.4 V 350.4 H 494.3 V 346.4 H 501.2 V 346.4 H 508.1 V 346.4 H 515.0 V 340.6 H 521.9 V 340.6 H 528.8 V 335.8 H 535.7 V 333.3 H 542.6 V 333.3 H 549.5 V 333.3 H 556.4 V 333.3 H 563.3 V 333.3 H 570.2 V 332.1 H 577.1 V 324.5 H 584.0 V 324.5 H 591.0 V 324.5 H 597.9 V 310.1 H 604.8 V 310.1 H 611.7 V 302.5 H 618.6 V 302.5 H 625.5 V 302.5 H 632.4 V 302.5 H 639.3 V 302.5 H 646.2 V 302.5 H 653.1 V 302.5 H 660.0 V 302.5 H 666.9 V 302.5 H 673.8 V 284.2 H 680.7 V 279.9 H 687.6 V 279.9 H 694.5 V 279.9 H 701.4 V 279.9 H 708.3 V 277.8 H 715.2 V 267.1 H 722.1 V 267.1 H 729.0 V 267.1 H 736.0 V 267.1 H 742.9 V 267.1 H 749.8 V 267.1 H 756.7 V 266.2 H 763.6 V 262.6 H 770.5 V 258.0 H 777.4 V 258.0 H 784.3 V 258.0 H 791.2 V 249.8 H 798.1 V 249.8 H 805.0 V 249.8 H 811.9 V 247.6 H 818.8 V 247.6 H 825.7 V 247.6 H 832.6 V 247.6 H 839.5 V 246.4 H 846.4 V 245.2 H 853.3 V 245.2 H 860.2 V 245.2 H 867.1 V 245.2 H 874.0 V 245.2 H 881.0 V 236.6 H 887.9 V 233.6 H 894.8 V 232.1 H 901.7 V 232.1 H 908.6 V 231.8 H 915.5 V 231.8 H 922.4 V 228.4 H 929.3 V 228.4 H 936.2 V 228.4 H 943.1 V 224.4 H 950.0 V 224.4 L 950.0,405 L 80,405 Z" fill="#60a5fa" fill-opacity="0.22"/><path d="M 80.0,397.1 H 86.9 V 397.1 H 93.8 V 397.1 H 100.7 V 397.1 H 107.6 V 397.1 H 114.5 V 397.1 H 121.4 V 397.1 H 128.3 V 397.1 H 135.2 V 392.8 H 142.1 V 390.4 H 149.0 V 390.4 H 156.0 V 390.4 H 162.9 V 390.4 H 169.8 V 390.4 H 176.7 V 390.4 H 183.6 V 390.4 H 190.5 V 387.6 H 197.4 V 386.7 H 204.3 V 386.7 H 211.2 V 386.7 H 218.1 V 386.7 H 225.0 V 386.7 H 231.9 V 384.0 H 238.8 V 384.0 H 245.7 V 382.7 H 252.6 V 382.7 H 259.5 V 380.6 H 266.4 V 380.6 H 273.3 V 380.6 H 280.2 V 379.1 H 287.1 V 379.1 H 294.0 V 379.1 H 301.0 V 379.1 H 307.9 V 379.1 H 314.8 V 379.1 H 321.7 V 379.1 H 328.6 V 379.1 H 335.5 V 379.1 H 342.4 V 379.1 H 349.3 V 379.1 H 356.2 V 379.1 H 363.1 V 379.1 H 370.0 V 379.1 H 376.9 V 379.1 H 383.8 V 379.1 H 390.7 V 379.1 H 397.6 V 379.1 H 404.5 V 379.1 H 411.4 V 379.1 H 418.3 V 379.1 H 425.2 V 379.1 H 432.1 V 379.1 H 439.0 V 379.1 H 446.0 V 350.4 H 452.9 V 350.4 H 459.8 V 350.4 H 466.7 V 350.4 H 473.6 V 350.4 H 480.5 V 350.4 H 487.4 V 350.4 H 494.3 V 346.4 H 501.2 V 346.4 H 508.1 V 346.4 H 515.0 V 340.6 H 521.9 V 340.6 H 528.8 V 335.8 H 535.7 V 333.3 H 542.6 V 333.3 H 549.5 V 333.3 H 556.4 V 333.3 H 563.3 V 333.3 H 570.2 V 332.1 H 577.1 V 324.5 H 584.0 V 324.5 H 591.0 V 324.5 H 597.9 V 310.1 H 604.8 V 310.1 H 611.7 V 302.5 H 618.6 V 302.5 H 625.5 V 302.5 H 632.4 V 302.5 H 639.3 V 302.5 H 646.2 V 302.5 H 653.1 V 302.5 H 660.0 V 302.5 H 666.9 V 302.5 H 673.8 V 284.2 H 680.7 V 279.9 H 687.6 V 279.9 H 694.5 V 279.9 H 701.4 V 279.9 H 708.3 V 277.8 H 715.2 V 267.1 H 722.1 V 267.1 H 729.0 V 267.1 H 736.0 V 267.1 H 742.9 V 267.1 H 749.8 V 267.1 H 756.7 V 266.2 H 763.6 V 262.6 H 770.5 V 258.0 H 777.4 V 258.0 H 784.3 V 258.0 H 791.2 V 249.8 H 798.1 V 249.8 H 805.0 V 249.8 H 811.9 V 247.6 H 818.8 V 247.6 H 825.7 V 247.6 H 832.6 V 247.6 H 839.5 V 246.4 H 846.4 V 245.2 H 853.3 V 245.2 H 860.2 V 245.2 H 867.1 V 245.2 H 874.0 V 245.2 H 881.0 V 236.6 H 887.9 V 233.6 H 894.8 V 232.1 H 901.7 V 232.1 H 908.6 V 231.8 H 915.5 V 231.8 H 922.4 V 228.4 H 929.3 V 228.4 H 936.2 V 228.4 H 943.1 V 224.4 H 950.0 V 224.4" fill="none" stroke="#60a5fa" stroke-width="2"/><path d="M 80.0,405.0 H 86.9 V 405.0 H 93.8 V 405.0 H 100.7 V 405.0 H 107.6 V 405.0 H 114.5 V 405.0 H 121.4 V 405.0 H 128.3 V 405.0 H 135.2 V 405.0 H 142.1 V 405.0 H 149.0 V 405.0 H 156.0 V 405.0 H 162.9 V 405.0 H 169.8 V 405.0 H 176.7 V 405.0 H 183.6 V 405.0 H 190.5 V 405.0 H 197.4 V 405.0 H 204.3 V 405.0 H 211.2 V 405.0 H 218.1 V 405.0 H 225.0 V 405.0 H 231.9 V 405.0 H 238.8 V 405.0 H 245.7 V 405.0 H 252.6 V 405.0 H 259.5 V 405.0 H 266.4 V 405.0 H 273.3 V 405.0 H 280.2 V 403.8 H 287.1 V 403.8 H 294.0 V 403.8 H 301.0 V 403.8 H 307.9 V 403.8 H 314.8 V 403.8 H 321.7 V 403.8 H 328.6 V 403.8 H 335.5 V 403.8 H 342.4 V 403.8 H 349.3 V 403.8 H 356.2 V 403.8 H 363.1 V 403.8 H 370.0 V 403.8 H 376.9 V 403.8 H 383.8 V 403.8 H 390.7 V 403.8 H 397.6 V 403.8 H 404.5 V 403.8 H 411.4 V 403.8 H 418.3 V 403.8 H 425.2 V 403.8 H 432.1 V 403.8 H 439.0 V 403.8 H 446.0 V 403.8 H 452.9 V 403.8 H 459.8 V 403.8 H 466.7 V 403.8 H 473.6 V 403.8 H 480.5 V 403.8 H 487.4 V 403.8 H 494.3 V 403.8 H 501.2 V 403.8 H 508.1 V 403.8 H 515.0 V 403.8 H 521.9 V 403.8 H 528.8 V 403.8 H 535.7 V 403.8 H 542.6 V 403.8 H 549.5 V 403.8 H 556.4 V 403.8 H 563.3 V 403.8 H 570.2 V 403.8 H 577.1 V 403.8 H 584.0 V 403.8 H 591.0 V 403.8 H 597.9 V 402.6 H 604.8 V 402.6 H 611.7 V 402.6 H 618.6 V 402.6 H 625.5 V 402.6 H 632.4 V 402.6 H 639.3 V 402.6 H 646.2 V 402.6 H 653.1 V 402.6 H 660.0 V 402.6 H 666.9 V 402.6 H 673.8 V 402.6 H 680.7 V 402.6 H 687.6 V 401.0 H 694.5 V 401.0 H 701.4 V 401.0 H 708.3 V 401.0 H 715.2 V 401.0 H 722.1 V 401.0 H 729.0 V 401.0 H 736.0 V 401.0 H 742.9 V 401.0 H 749.8 V 401.0 H 756.7 V 401.0 H 763.6 V 399.5 H 770.5 V 399.5 H 777.4 V 399.5 H 784.3 V 399.5 H 791.2 V 399.5 H 798.1 V 399.5 H 805.0 V 399.5 H 811.9 V 399.5 H 818.8 V 399.5 H 825.7 V 399.5 H 832.6 V 399.5 H 839.5 V 399.5 H 846.4 V 399.5 H 853.3 V 399.5 H 860.2 V 399.5 H 867.1 V 399.5 H 874.0 V 399.5 H 881.0 V 357.4 H 887.9 V 357.4 H 894.8 V 357.4 H 901.7 V 340.9 H 908.6 V 336.4 H 915.5 V 329.7 H 922.4 V 329.7 H 929.3 V 329.7 H 936.2 V 315.6 H 943.1 V 314.1 H 950.0 V 311.7 L 950.0,405 L 80,405 Z" fill="#5eead4" fill-opacity="0.6"/><path d="M 80.0,405.0 H 86.9 V 405.0 H 93.8 V 405.0 H 100.7 V 405.0 H 107.6 V 405.0 H 114.5 V 405.0 H 121.4 V 405.0 H 128.3 V 405.0 H 135.2 V 405.0 H 142.1 V 405.0 H 149.0 V 405.0 H 156.0 V 405.0 H 162.9 V 405.0 H 169.8 V 405.0 H 176.7 V 405.0 H 183.6 V 405.0 H 190.5 V 405.0 H 197.4 V 405.0 H 204.3 V 405.0 H 211.2 V 405.0 H 218.1 V 405.0 H 225.0 V 405.0 H 231.9 V 405.0 H 238.8 V 405.0 H 245.7 V 405.0 H 252.6 V 405.0 H 259.5 V 405.0 H 266.4 V 405.0 H 273.3 V 405.0 H 280.2 V 403.8 H 287.1 V 403.8 H 294.0 V 403.8 H 301.0 V 403.8 H 307.9 V 403.8 H 314.8 V 403.8 H 321.7 V 403.8 H 328.6 V 403.8 H 335.5 V 403.8 H 342.4 V 403.8 H 349.3 V 403.8 H 356.2 V 403.8 H 363.1 V 403.8 H 370.0 V 403.8 H 376.9 V 403.8 H 383.8 V 403.8 H 390.7 V 403.8 H 397.6 V 403.8 H 404.5 V 403.8 H 411.4 V 403.8 H 418.3 V 403.8 H 425.2 V 403.8 H 432.1 V 403.8 H 439.0 V 403.8 H 446.0 V 403.8 H 452.9 V 403.8 H 459.8 V 403.8 H 466.7 V 403.8 H 473.6 V 403.8 H 480.5 V 403.8 H 487.4 V 403.8 H 494.3 V 403.8 H 501.2 V 403.8 H 508.1 V 403.8 H 515.0 V 403.8 H 521.9 V 403.8 H 528.8 V 403.8 H 535.7 V 403.8 H 542.6 V 403.8 H 549.5 V 403.8 H 556.4 V 403.8 H 563.3 V 403.8 H 570.2 V 403.8 H 577.1 V 403.8 H 584.0 V 403.8 H 591.0 V 403.8 H 597.9 V 402.6 H 604.8 V 402.6 H 611.7 V 402.6 H 618.6 V 402.6 H 625.5 V 402.6 H 632.4 V 402.6 H 639.3 V 402.6 H 646.2 V 402.6 H 653.1 V 402.6 H 660.0 V 402.6 H 666.9 V 402.6 H 673.8 V 402.6 H 680.7 V 402.6 H 687.6 V 401.0 H 694.5 V 401.0 H 701.4 V 401.0 H 708.3 V 401.0 H 715.2 V 401.0 H 722.1 V 401.0 H 729.0 V 401.0 H 736.0 V 401.0 H 742.9 V 401.0 H 749.8 V 401.0 H 756.7 V 401.0 H 763.6 V 399.5 H 770.5 V 399.5 H 777.4 V 399.5 H 784.3 V 399.5 H 791.2 V 399.5 H 798.1 V 399.5 H 805.0 V 399.5 H 811.9 V 399.5 H 818.8 V 399.5 H 825.7 V 399.5 H 832.6 V 399.5 H 839.5 V 399.5 H 846.4 V 399.5 H 853.3 V 399.5 H 860.2 V 399.5 H 867.1 V 399.5 H 874.0 V 399.5 H 881.0 V 357.4 H 887.9 V 357.4 H 894.8 V 357.4 H 901.7 V 340.9 H 908.6 V 336.4 H 915.5 V 329.7 H 922.4 V 329.7 H 929.3 V 329.7 H 936.2 V 315.6 H 943.1 V 314.1 H 950.0 V 311.7" fill="none" stroke="#5eead4" stroke-width="2"/><polygon points="80.0,397.1 86.9,397.1 93.8,397.1 100.7,397.1 107.6,397.1 114.5,397.1 121.4,397.1 128.3,397.1 135.2,392.8 142.1,390.4 149.0,390.4 156.0,390.4 162.9,390.4 169.8,390.4 176.7,390.4 183.6,390.4 190.5,387.6 197.4,386.7 204.3,386.7 211.2,386.7 218.1,386.7 225.0,386.7 231.9,384.0 238.8,384.0 245.7,382.7 252.6,382.7 259.5,380.6 266.4,380.6 273.3,380.6 280.2,379.1 287.1,379.1 294.0,379.1 301.0,379.1 307.9,379.1 314.8,379.1 321.7,379.1 328.6,379.1 335.5,379.1 342.4,379.1 349.3,379.1 356.2,379.1 363.1,379.1 370.0,379.1 376.9,379.1 383.8,379.1 390.7,379.1 397.6,379.1 404.5,379.1 411.4,379.1 418.3,379.1 425.2,379.1 432.1,379.1 439.0,379.1 446.0,350.4 452.9,350.4 459.8,350.4 466.7,350.4 473.6,350.4 480.5,350.4 487.4,350.4 494.3,346.4 501.2,346.4 508.1,346.4 515.0,340.6 521.9,340.6 528.8,335.8 535.7,333.3 542.6,333.3 549.5,333.3 556.4,333.3 563.3,333.3 570.2,332.1 577.1,324.5 584.0,324.5 591.0,324.5 597.9,310.1 604.8,310.1 611.7,302.5 618.6,302.5 625.5,302.5 632.4,302.5 639.3,302.5 646.2,302.5 653.1,302.5 660.0,302.5 666.9,302.5 673.8,284.2 680.7,279.9 687.6,279.9 694.5,279.9 701.4,279.9 708.3,277.8 715.2,267.1 722.1,267.1 729.0,267.1 736.0,267.1 742.9,267.1 749.8,267.1 756.7,266.2 763.6,262.6 770.5,258.0 777.4,258.0 784.3,258.0 791.2,249.8 798.1,249.8 805.0,249.8 811.9,247.6 818.8,247.6 825.7,247.6 832.6,247.6 839.5,246.4 846.4,245.2 853.3,245.2 860.2,245.2 867.1,245.2 874.0,245.2 881.0,236.6 887.9,233.6 894.8,232.1 901.7,232.1 908.6,231.8 915.5,231.8 922.4,228.4 929.3,228.4 936.2,228.4 943.1,224.4 950.0,224.4 950.0,228.4 943.1,228.4 936.2,228.4 929.3,231.8 922.4,231.8 915.5,231.8 908.6,234.2 901.7,236.3 894.8,281.5 887.9,281.5 881.0,281.5 874.0,399.5 867.1,399.5 860.2,399.5 853.3,399.5 846.4,399.5 839.5,399.5 832.6,399.5 825.7,399.5 818.8,399.5 811.9,399.5 805.0,399.5 798.1,399.5 791.2,399.5 784.3,399.5 777.4,399.5 770.5,399.5 763.6,399.5 756.7,401.0 749.8,401.0 742.9,401.0 736.0,401.0 729.0,401.0 722.1,401.0 715.2,401.0 708.3,401.0 701.4,401.0 694.5,401.0 687.6,401.0 680.7,402.6 673.8,402.6 666.9,402.6 660.0,402.6 653.1,402.6 646.2,402.6 639.3,402.6 632.4,402.6 625.5,402.6 618.6,402.6 611.7,402.6 604.8,402.6 597.9,402.6 591.0,403.8 584.0,403.8 577.1,403.8 570.2,403.8 563.3,403.8 556.4,403.8 549.5,403.8 542.6,403.8 535.7,403.8 528.8,403.8 521.9,403.8 515.0,403.8 508.1,403.8 501.2,403.8 494.3,403.8 487.4,403.8 480.5,403.8 473.6,403.8 466.7,403.8 459.8,403.8 452.9,403.8 446.0,403.8 439.0,403.8 432.1,403.8 425.2,403.8 418.3,403.8 411.4,403.8 404.5,403.8 397.6,403.8 390.7,403.8 383.8,403.8 376.9,403.8 370.0,403.8 363.1,403.8 356.2,403.8 349.3,403.8 342.4,403.8 335.5,403.8 328.6,403.8 321.7,403.8 314.8,403.8 307.9,403.8 301.0,403.8 294.0,403.8 287.1,403.8 280.2,403.8 273.3,405.0 266.4,405.0 259.5,405.0 252.6,405.0 245.7,405.0 238.8,405.0 231.9,405.0 225.0,405.0 218.1,405.0 211.2,405.0 204.3,405.0 197.4,405.0 190.5,405.0 183.6,405.0 176.7,405.0 169.8,405.0 162.9,405.0 156.0,405.0 149.0,405.0 142.1,405.0 135.2,405.0 128.3,405.0 121.4,405.0 114.5,405.0 107.6,405.0 100.7,405.0 93.8,405.0 86.9,405.0 80.0,405.0" fill="#9aa6c9" fill-opacity="0.25"/></svg>
